<mxfile host="65bd71144e">
    <diagram id="x38oW-rwYkI-MGM0Nh5z" name="Page-1">
        <mxGraphModel dx="1138" dy="1877" grid="1" gridSize="10" guides="1" tooltips="1" connect="1" arrows="1" fold="1" page="1" pageScale="1" pageWidth="850" pageHeight="1100" math="0" shadow="0">
            <root>
                <mxCell id="0"/>
                <mxCell id="1" parent="0"/>
                <mxCell id="274" value="" style="group;strokeColor=default;container=0;" parent="1" vertex="1" connectable="0">
                    <mxGeometry x="1190" y="-386.12" width="145.3" height="250" as="geometry"/>
                </mxCell>
                <mxCell id="16" value="" style="rounded=0;whiteSpace=wrap;html=1;verticalAlign=top;fillColor=none;strokeColor=default;fontColor=#ffffff;dashed=1;" parent="1" vertex="1">
                    <mxGeometry x="160" y="-380" width="490" height="290" as="geometry"/>
                </mxCell>
                <mxCell id="272" value="" style="group;strokeColor=default;container=0;" parent="1" vertex="1" connectable="0">
                    <mxGeometry x="331.75" y="-360" width="145" height="250" as="geometry"/>
                </mxCell>
                <mxCell id="11" value="&amp;nbsp;Micro FE CLI" style="shape=process;whiteSpace=wrap;html=1;backgroundOutline=1;fillColor=#647687;strokeColor=#314354;fontColor=#ffffff;" parent="1" vertex="1">
                    <mxGeometry x="332" y="-870" width="180" height="60" as="geometry"/>
                </mxCell>
                <mxCell id="21" value="" style="endArrow=classic;html=1;entryX=0.5;entryY=0;entryDx=0;entryDy=0;" parent="1" source="131" target="11" edge="1">
                    <mxGeometry width="50" height="50" relative="1" as="geometry">
                        <mxPoint x="430.0000000000002" y="-950" as="sourcePoint"/>
                        <mxPoint x="455" y="-860" as="targetPoint"/>
                    </mxGeometry>
                </mxCell>
                <mxCell id="80" value="" style="endArrow=classic;html=1;exitX=0.5;exitY=1;exitDx=0;exitDy=0;" parent="1" source="11" target="130" edge="1">
                    <mxGeometry width="50" height="50" relative="1" as="geometry">
                        <mxPoint x="165" y="-790" as="sourcePoint"/>
                        <mxPoint x="415" y="-730" as="targetPoint"/>
                    </mxGeometry>
                </mxCell>
                <mxCell id="259" value="Generate" style="edgeLabel;html=1;align=center;verticalAlign=middle;resizable=0;points=[];" parent="80" vertex="1" connectable="0">
                    <mxGeometry x="-0.1976" y="3" relative="1" as="geometry">
                        <mxPoint as="offset"/>
                    </mxGeometry>
                </mxCell>
                <mxCell id="88" value="" style="group;strokeColor=default;container=0;" parent="1" vertex="1" connectable="0">
                    <mxGeometry x="175" y="-360" width="145" height="250" as="geometry"/>
                </mxCell>
                <mxCell id="107" value="" style="edgeStyle=none;html=1;dashed=1;exitX=0.5;exitY=1;exitDx=0;exitDy=0;entryX=0.5;entryY=0;entryDx=0;entryDy=0;" parent="1" source="8" target="16" edge="1">
                    <mxGeometry relative="1" as="geometry">
                        <mxPoint x="425" y="-490" as="sourcePoint"/>
                        <mxPoint x="406.25" y="-390" as="targetPoint"/>
                    </mxGeometry>
                </mxCell>
                <mxCell id="108" value="&lt;b&gt;Discover&lt;/b&gt;" style="edgeLabel;html=1;align=center;verticalAlign=middle;resizable=0;points=[];" parent="107" vertex="1" connectable="0">
                    <mxGeometry x="0.0009" y="-1" relative="1" as="geometry">
                        <mxPoint as="offset"/>
                    </mxGeometry>
                </mxCell>
                <mxCell id="109" style="edgeStyle=none;html=1;dashed=1;startArrow=none;startFill=0;endArrow=classic;endFill=1;entryX=0.147;entryY=1.009;entryDx=0;entryDy=0;entryPerimeter=0;" parent="1" target="8" edge="1">
                    <mxGeometry relative="1" as="geometry">
                        <mxPoint x="225" y="-470" as="targetPoint"/>
                        <mxPoint x="240" y="-360" as="sourcePoint"/>
                    </mxGeometry>
                </mxCell>
                <mxCell id="110" value="&lt;b&gt;SRC Call&lt;/b&gt;" style="edgeLabel;html=1;align=center;verticalAlign=middle;resizable=0;points=[];" parent="109" vertex="1" connectable="0">
                    <mxGeometry x="0.158" y="-1" relative="1" as="geometry">
                        <mxPoint as="offset"/>
                    </mxGeometry>
                </mxCell>
                <mxCell id="111" style="edgeStyle=none;html=1;dashed=1;startArrow=none;startFill=0;endArrow=classic;endFill=1;entryX=0.819;entryY=1.021;entryDx=0;entryDy=0;entryPerimeter=0;exitX=0.5;exitY=0;exitDx=0;exitDy=0;" parent="1" target="8" edge="1">
                    <mxGeometry relative="1" as="geometry">
                        <mxPoint x="563.25" y="-360" as="sourcePoint"/>
                        <mxPoint x="215" y="-480" as="targetPoint"/>
                    </mxGeometry>
                </mxCell>
                <mxCell id="112" value="&lt;b&gt;SRC Call&lt;/b&gt;" style="edgeLabel;html=1;align=center;verticalAlign=middle;resizable=0;points=[];" parent="111" vertex="1" connectable="0">
                    <mxGeometry x="0.158" y="-1" relative="1" as="geometry">
                        <mxPoint as="offset"/>
                    </mxGeometry>
                </mxCell>
                <mxCell id="123" value="CoreKit" style="text;html=1;strokeColor=none;fillColor=none;align=center;verticalAlign=middle;whiteSpace=wrap;rounded=0;" parent="1" vertex="1">
                    <mxGeometry x="565" y="-600" width="110" height="20" as="geometry"/>
                </mxCell>
                <mxCell id="126" value="Modules / Domains" style="text;html=1;strokeColor=none;fillColor=none;align=center;verticalAlign=middle;whiteSpace=wrap;rounded=0;" parent="1" vertex="1">
                    <mxGeometry x="590" y="-410" width="110" height="20" as="geometry"/>
                </mxCell>
                <mxCell id="130" value="BookShop App" style="rounded=0;whiteSpace=wrap;html=1;fillColor=#1ba1e2;fontColor=#ffffff;strokeColor=#006EAF;" parent="1" vertex="1">
                    <mxGeometry x="321.6" y="-750" width="205.81" height="120" as="geometry"/>
                </mxCell>
                <mxCell id="131" value="BookStore&lt;br&gt;Config" style="sketch=0;outlineConnect=0;fontColor=#232F3E;gradientColor=none;strokeColor=#ffffff;fillColor=#232F3E;dashed=0;verticalLabelPosition=middle;verticalAlign=bottom;align=center;html=1;whiteSpace=wrap;fontSize=10;fontStyle=1;spacing=3;shape=mxgraph.aws4.productIcon;prIcon=mxgraph.aws4.config;" parent="1" vertex="1">
                    <mxGeometry x="381" y="-1040" width="89.18" height="120" as="geometry"/>
                </mxCell>
                <mxCell id="133" value="" style="edgeStyle=none;html=1;" parent="1" edge="1">
                    <mxGeometry relative="1" as="geometry">
                        <mxPoint x="419" y="-630" as="sourcePoint"/>
                        <mxPoint x="419" y="-570" as="targetPoint"/>
                    </mxGeometry>
                </mxCell>
                <mxCell id="132" value="Journey / flow" style="rounded=0;whiteSpace=wrap;html=1;" parent="1" vertex="1">
                    <mxGeometry x="350" y="-670" width="150" height="30" as="geometry"/>
                </mxCell>
                <mxCell id="146" value="&amp;nbsp;Micro FE CLI" style="shape=process;whiteSpace=wrap;html=1;backgroundOutline=1;fillColor=#647687;strokeColor=#314354;fontColor=#ffffff;" parent="1" vertex="1">
                    <mxGeometry x="1172" y="-865" width="180" height="60" as="geometry"/>
                </mxCell>
                <mxCell id="147" value="" style="endArrow=classic;html=1;entryX=0.5;entryY=0;entryDx=0;entryDy=0;" parent="1" source="172" target="146" edge="1">
                    <mxGeometry width="50" height="50" relative="1" as="geometry">
                        <mxPoint x="1270.0000000000002" y="-945" as="sourcePoint"/>
                        <mxPoint x="1295" y="-855" as="targetPoint"/>
                    </mxGeometry>
                </mxCell>
                <mxCell id="152" value="" style="endArrow=classic;html=1;exitX=0.5;exitY=1;exitDx=0;exitDy=0;" parent="1" source="146" target="171" edge="1">
                    <mxGeometry width="50" height="50" relative="1" as="geometry">
                        <mxPoint x="1005" y="-785" as="sourcePoint"/>
                        <mxPoint x="1255" y="-725" as="targetPoint"/>
                    </mxGeometry>
                </mxCell>
                <mxCell id="260" value="Generate" style="edgeLabel;html=1;align=center;verticalAlign=middle;resizable=0;points=[];" parent="152" vertex="1" connectable="0">
                    <mxGeometry x="-0.2" y="3" relative="1" as="geometry">
                        <mxPoint as="offset"/>
                    </mxGeometry>
                </mxCell>
                <mxCell id="163" value="" style="edgeStyle=none;html=1;dashed=1;exitX=0.412;exitY=1.004;exitDx=0;exitDy=0;exitPerimeter=0;" parent="1" source="144" edge="1">
                    <mxGeometry relative="1" as="geometry">
                        <mxPoint x="1265" y="-485" as="sourcePoint"/>
                        <mxPoint x="1210" y="-387" as="targetPoint"/>
                    </mxGeometry>
                </mxCell>
                <mxCell id="164" value="Discover" style="edgeLabel;html=1;align=center;verticalAlign=middle;resizable=0;points=[];" parent="163" vertex="1" connectable="0">
                    <mxGeometry x="0.0009" y="-1" relative="1" as="geometry">
                        <mxPoint as="offset"/>
                    </mxGeometry>
                </mxCell>
                <mxCell id="169" value="CoreKit" style="text;html=1;strokeColor=none;fillColor=none;align=center;verticalAlign=middle;whiteSpace=wrap;rounded=0;" parent="1" vertex="1">
                    <mxGeometry x="1405" y="-595" width="110" height="20" as="geometry"/>
                </mxCell>
                <mxCell id="171" value="Product List Sub App" style="rounded=0;whiteSpace=wrap;html=1;fillColor=#1ba1e2;fontColor=#ffffff;strokeColor=#006EAF;" parent="1" vertex="1">
                    <mxGeometry x="1159.1" y="-760" width="205.81" height="115" as="geometry"/>
                </mxCell>
                <mxCell id="172" value="Product List Config" style="sketch=0;outlineConnect=0;fontColor=#232F3E;gradientColor=none;strokeColor=#ffffff;fillColor=#232F3E;dashed=0;verticalLabelPosition=middle;verticalAlign=bottom;align=center;html=1;whiteSpace=wrap;fontSize=10;fontStyle=1;spacing=3;shape=mxgraph.aws4.productIcon;prIcon=mxgraph.aws4.config;" parent="1" vertex="1">
                    <mxGeometry x="1220.71" y="-1030" width="89.18" height="115" as="geometry"/>
                </mxCell>
                <mxCell id="173" value="" style="edgeStyle=none;html=1;exitX=0.5;exitY=1;exitDx=0;exitDy=0;entryX=0.542;entryY=-0.003;entryDx=0;entryDy=0;entryPerimeter=0;" parent="1" source="171" target="144" edge="1">
                    <mxGeometry relative="1" as="geometry">
                        <mxPoint x="1270" y="-625" as="sourcePoint"/>
                        <mxPoint x="1270" y="-570" as="targetPoint"/>
                    </mxGeometry>
                </mxCell>
                <mxCell id="174" value="Journey / flow" style="rounded=0;whiteSpace=wrap;html=1;" parent="1" vertex="1">
                    <mxGeometry x="1195.3" y="-680" width="140" height="30" as="geometry"/>
                </mxCell>
                <mxCell id="180" style="edgeStyle=none;html=1;dashed=1;startArrow=none;startFill=0;endArrow=classic;endFill=1;entryX=0.598;entryY=1.019;entryDx=0;entryDy=0;entryPerimeter=0;" parent="1" target="144" edge="1">
                    <mxGeometry relative="1" as="geometry">
                        <mxPoint x="1286" y="-390" as="sourcePoint"/>
                        <mxPoint x="1333.09" y="-474.99999999999994" as="targetPoint"/>
                    </mxGeometry>
                </mxCell>
                <mxCell id="181" value="SRC Call" style="edgeLabel;html=1;align=center;verticalAlign=middle;resizable=0;points=[];" parent="180" vertex="1" connectable="0">
                    <mxGeometry x="0.158" y="-1" relative="1" as="geometry">
                        <mxPoint as="offset"/>
                    </mxGeometry>
                </mxCell>
                <mxCell id="182" value="" style="group" parent="1" vertex="1" connectable="0">
                    <mxGeometry x="165" y="-570" width="490" height="90" as="geometry"/>
                </mxCell>
                <mxCell id="8" value="" style="rounded=0;whiteSpace=wrap;html=1;strokeColor=#432D57;fillColor=#76608a;fontColor=#ffffff;" parent="182" vertex="1">
                    <mxGeometry width="490" height="90" as="geometry"/>
                </mxCell>
                <mxCell id="10" value="&lt;font color=&quot;#ffffff&quot;&gt;AppEvent&lt;br&gt;(EventBased)&lt;br&gt;&lt;/font&gt;" style="whiteSpace=wrap;html=1;aspect=fixed;fillColor=#f0a30a;strokeColor=#BD7000;fontColor=#000000;" parent="182" vertex="1">
                    <mxGeometry x="20" y="10" width="67.05" height="67.05" as="geometry"/>
                </mxCell>
                <mxCell id="26" value="&lt;font color=&quot;#ffffff&quot;&gt;&amp;nbsp;Service&amp;nbsp;&lt;br&gt;Discover&lt;br&gt;&lt;/font&gt;" style="whiteSpace=wrap;html=1;aspect=fixed;fillColor=#008a00;strokeColor=#005700;fontColor=#ffffff;" parent="182" vertex="1">
                    <mxGeometry x="210" y="12.799999999999955" width="64.25" height="64.25" as="geometry"/>
                </mxCell>
                <mxCell id="56" value="&lt;font color=&quot;#ffffff&quot;&gt;SPC&lt;br&gt;(Service&lt;br&gt;Procedure&lt;br&gt;Call)&lt;br&gt;&lt;/font&gt;" style="whiteSpace=wrap;html=1;aspect=fixed;fillColor=#008a00;strokeColor=#005700;fontColor=#ffffff;" parent="182" vertex="1">
                    <mxGeometry x="298.16" y="12.8" width="61.84" height="61.84" as="geometry"/>
                </mxCell>
                <mxCell id="71" value="&lt;font color=&quot;#ffffff&quot;&gt;Router&lt;br&gt;&lt;/font&gt;" style="whiteSpace=wrap;html=1;aspect=fixed;fillColor=#999999;strokeColor=#FFFFFF;dashed=1;" parent="182" vertex="1">
                    <mxGeometry x="120" y="11.990000000000009" width="63.07" height="63.07" as="geometry"/>
                </mxCell>
                <mxCell id="72" value="&lt;font color=&quot;#ffffff&quot;&gt;EventBus&lt;br&gt;&lt;/font&gt;" style="whiteSpace=wrap;html=1;aspect=fixed;fillColor=#808080;strokeColor=#E6E6E6;fontColor=#ffffff;dashed=1;" parent="182" vertex="1">
                    <mxGeometry x="390" y="14.710000000000036" width="62.34" height="62.34" as="geometry"/>
                </mxCell>
                <mxCell id="183" value="" style="group" parent="1" vertex="1" connectable="0">
                    <mxGeometry x="1035" y="-565" width="420" height="90" as="geometry"/>
                </mxCell>
                <mxCell id="144" value="" style="rounded=0;whiteSpace=wrap;html=1;strokeColor=#432D57;fillColor=#76608a;fontColor=#ffffff;" parent="183" vertex="1">
                    <mxGeometry width="420" height="90" as="geometry"/>
                </mxCell>
                <mxCell id="145" value="&lt;font color=&quot;#ffffff&quot;&gt;AppEvent&lt;br&gt;(EventBased)&lt;br&gt;&lt;/font&gt;" style="whiteSpace=wrap;html=1;aspect=fixed;fillColor=#f0a30a;strokeColor=#BD7000;fontColor=#000000;" parent="183" vertex="1">
                    <mxGeometry x="10" y="10" width="67.05" height="67.05" as="geometry"/>
                </mxCell>
                <mxCell id="148" value="&lt;font color=&quot;#ffffff&quot;&gt;&amp;nbsp;Service&amp;nbsp;&lt;br&gt;Discover&lt;br&gt;&lt;/font&gt;" style="whiteSpace=wrap;html=1;aspect=fixed;fillColor=#008a00;strokeColor=#005700;fontColor=#ffffff;" parent="183" vertex="1">
                    <mxGeometry x="170" y="11.990000000000009" width="64.25" height="64.25" as="geometry"/>
                </mxCell>
                <mxCell id="149" value="&lt;font color=&quot;#ffffff&quot;&gt;SPC&lt;br&gt;(Service&lt;br&gt;Procedure&lt;br&gt;Call)&lt;br&gt;&lt;/font&gt;" style="whiteSpace=wrap;html=1;aspect=fixed;fillColor=#008a00;strokeColor=#005700;fontColor=#ffffff;" parent="183" vertex="1">
                    <mxGeometry x="253.18999999999983" y="13.759999999999991" width="64.25" height="64.25" as="geometry"/>
                </mxCell>
                <mxCell id="150" value="&lt;font color=&quot;#ffffff&quot;&gt;Router&lt;br&gt;&lt;/font&gt;" style="whiteSpace=wrap;html=1;aspect=fixed;fillColor=#999999;strokeColor=#FFFFFF;dashed=1;" parent="183" vertex="1">
                    <mxGeometry x="90" y="11.990000000000009" width="63.07" height="63.07" as="geometry"/>
                </mxCell>
                <mxCell id="151" value="&lt;font color=&quot;#ffffff&quot;&gt;EventBus&lt;br&gt;&lt;/font&gt;" style="whiteSpace=wrap;html=1;aspect=fixed;fillColor=#808080;strokeColor=#E6E6E6;fontColor=#ffffff;dashed=1;" parent="183" vertex="1">
                    <mxGeometry x="340" y="14.710000000000036" width="62.34" height="62.34" as="geometry"/>
                </mxCell>
                <mxCell id="245" value="" style="group" parent="1" vertex="1" connectable="0">
                    <mxGeometry x="20" y="-750" width="100" height="640" as="geometry"/>
                </mxCell>
                <mxCell id="235" value="" style="rounded=0;whiteSpace=wrap;html=1;fillColor=none;" parent="245" vertex="1">
                    <mxGeometry width="100" height="640" as="geometry"/>
                </mxCell>
                <mxCell id="236" value="DesignKit" style="rounded=0;whiteSpace=wrap;html=1;fillColor=#6d8764;fontColor=#ffffff;strokeColor=#3A5431;" parent="245" vertex="1">
                    <mxGeometry x="10" y="77.57575757575758" width="80" height="58.18181818181819" as="geometry"/>
                </mxCell>
                <mxCell id="237" value="TestKit" style="rounded=0;whiteSpace=wrap;html=1;fillColor=#6d8764;fontColor=#ffffff;strokeColor=#3A5431;" parent="245" vertex="1">
                    <mxGeometry x="10" y="169.6969696969697" width="80" height="58.18181818181819" as="geometry"/>
                </mxCell>
                <mxCell id="238" value="Network" style="rounded=0;whiteSpace=wrap;html=1;fillColor=#6d8764;fontColor=#ffffff;strokeColor=#3A5431;" parent="245" vertex="1">
                    <mxGeometry x="10" y="261.8181818181818" width="80" height="58.18181818181819" as="geometry"/>
                </mxCell>
                <mxCell id="239" value="Persistance" style="rounded=0;whiteSpace=wrap;html=1;fillColor=#6d8764;fontColor=#ffffff;strokeColor=#3A5431;" parent="245" vertex="1">
                    <mxGeometry x="10" y="368.4848484848485" width="80" height="58.18181818181819" as="geometry"/>
                </mxCell>
                <mxCell id="240" value="Feture toggle" style="rounded=0;whiteSpace=wrap;html=1;fillColor=#6d8764;fontColor=#ffffff;strokeColor=#3A5431;" parent="245" vertex="1">
                    <mxGeometry x="10" y="470.3030303030303" width="80" height="58.18181818181819" as="geometry"/>
                </mxCell>
                <mxCell id="241" value="..." style="text;html=1;strokeColor=none;fillColor=none;align=center;verticalAlign=middle;whiteSpace=wrap;rounded=0;" parent="245" vertex="1">
                    <mxGeometry x="20" y="562.4242424242425" width="60" height="29.090909090909093" as="geometry"/>
                </mxCell>
                <mxCell id="242" value="Foundation" style="text;html=1;strokeColor=none;fillColor=none;align=center;verticalAlign=middle;whiteSpace=wrap;rounded=0;" parent="245" vertex="1">
                    <mxGeometry x="20" y="9.696969696969697" width="60" height="29.090909090909093" as="geometry"/>
                </mxCell>
                <mxCell id="243" style="edgeStyle=none;html=1;entryX=0;entryY=0.414;entryDx=0;entryDy=0;entryPerimeter=0;exitX=1;exitY=0.727;exitDx=0;exitDy=0;exitPerimeter=0;" parent="1" source="235" target="16" edge="1">
                    <mxGeometry relative="1" as="geometry">
                        <mxPoint x="154.01999999999998" y="-275.70000000000005" as="targetPoint"/>
                    </mxGeometry>
                </mxCell>
                <mxCell id="244" style="edgeStyle=none;html=1;exitX=0.996;exitY=0.102;exitDx=0;exitDy=0;exitPerimeter=0;" parent="1" source="235" target="130" edge="1">
                    <mxGeometry relative="1" as="geometry"/>
                </mxCell>
                <mxCell id="246" value="" style="group" parent="1" vertex="1" connectable="0">
                    <mxGeometry x="890" y="-760" width="100" height="620" as="geometry"/>
                </mxCell>
                <mxCell id="247" value="" style="rounded=0;whiteSpace=wrap;html=1;fillColor=none;" parent="246" vertex="1">
                    <mxGeometry width="100" height="620" as="geometry"/>
                </mxCell>
                <mxCell id="248" value="DesignKit" style="rounded=0;whiteSpace=wrap;html=1;fillColor=#6d8764;fontColor=#ffffff;strokeColor=#3A5431;" parent="246" vertex="1">
                    <mxGeometry x="10" y="75.15151515151516" width="80" height="56.36363636363637" as="geometry"/>
                </mxCell>
                <mxCell id="249" value="TestKit" style="rounded=0;whiteSpace=wrap;html=1;fillColor=#6d8764;fontColor=#ffffff;strokeColor=#3A5431;" parent="246" vertex="1">
                    <mxGeometry x="10" y="164.39393939393938" width="80" height="56.36363636363637" as="geometry"/>
                </mxCell>
                <mxCell id="250" value="Network" style="rounded=0;whiteSpace=wrap;html=1;fillColor=#6d8764;fontColor=#ffffff;strokeColor=#3A5431;" parent="246" vertex="1">
                    <mxGeometry x="10" y="253.63636363636368" width="80" height="56.36363636363637" as="geometry"/>
                </mxCell>
                <mxCell id="251" value="Persistance" style="rounded=0;whiteSpace=wrap;html=1;fillColor=#6d8764;fontColor=#ffffff;strokeColor=#3A5431;" parent="246" vertex="1">
                    <mxGeometry x="10" y="356.969696969697" width="80" height="56.36363636363637" as="geometry"/>
                </mxCell>
                <mxCell id="252" value="Feture toggle" style="rounded=0;whiteSpace=wrap;html=1;fillColor=#6d8764;fontColor=#ffffff;strokeColor=#3A5431;" parent="246" vertex="1">
                    <mxGeometry x="10" y="455.6060606060607" width="80" height="56.36363636363637" as="geometry"/>
                </mxCell>
                <mxCell id="253" value="..." style="text;html=1;strokeColor=none;fillColor=none;align=center;verticalAlign=middle;whiteSpace=wrap;rounded=0;" parent="246" vertex="1">
                    <mxGeometry x="20" y="544.8484848484849" width="60" height="28.181818181818183" as="geometry"/>
                </mxCell>
                <mxCell id="254" value="Foundation" style="text;html=1;strokeColor=none;fillColor=none;align=center;verticalAlign=middle;whiteSpace=wrap;rounded=0;" parent="246" vertex="1">
                    <mxGeometry x="20" y="9.393939393939394" width="60" height="28.181818181818183" as="geometry"/>
                </mxCell>
                <mxCell id="257" style="edgeStyle=none;html=1;exitX=1.03;exitY=0.848;exitDx=0;exitDy=0;exitPerimeter=0;" parent="1" source="247" edge="1">
                    <mxGeometry relative="1" as="geometry">
                        <mxPoint x="1190" y="-234" as="targetPoint"/>
                    </mxGeometry>
                </mxCell>
                <mxCell id="258" style="edgeStyle=none;html=1;entryX=0;entryY=0.5;entryDx=0;entryDy=0;exitX=1.047;exitY=0.111;exitDx=0;exitDy=0;exitPerimeter=0;" parent="1" source="247" target="171" edge="1">
                    <mxGeometry relative="1" as="geometry">
                        <mxPoint x="1003" y="-200.3199999999997" as="sourcePoint"/>
                        <mxPoint x="1204.6329999999998" y="-233.25" as="targetPoint"/>
                    </mxGeometry>
                </mxCell>
                <mxCell id="86" value="Book&amp;nbsp; Product Impl" style="rounded=0;whiteSpace=wrap;html=1;fillColor=#6d8764;strokeColor=#3A5431;fontColor=#ffffff;" parent="1" vertex="1">
                    <mxGeometry x="189.0421052631579" y="-248.05970149253733" width="108.82631578947368" height="111.94029850746269" as="geometry"/>
                </mxCell>
                <mxCell id="43" value="Contracts&lt;br&gt;(Services)" style="rounded=0;whiteSpace=wrap;html=1;fillColor=#647687;fontColor=#ffffff;strokeColor=#314354;" parent="1" vertex="1">
                    <mxGeometry x="189.0421052631579" y="-322.6865671641791" width="105.31578947368422" height="46.64179104477612" as="geometry"/>
                </mxCell>
                <mxCell id="87" value="" style="edgeStyle=none;html=1;endArrow=none;endFill=0;startArrow=classic;startFill=1;" parent="1" source="43" target="86" edge="1">
                    <mxGeometry relative="1" as="geometry"/>
                </mxCell>
                <mxCell id="227" value="Service Impl 1" style="rounded=0;whiteSpace=wrap;html=1;fillColor=#647687;fontColor=#ffffff;strokeColor=#314354;" parent="1" vertex="1">
                    <mxGeometry x="194.21000000000004" y="-242.09000000000003" width="46" height="30" as="geometry"/>
                </mxCell>
                <mxCell id="228" value="Service Impl N" style="rounded=0;whiteSpace=wrap;html=1;fillColor=#647687;fontColor=#ffffff;strokeColor=#314354;" parent="1" vertex="1">
                    <mxGeometry x="248.71000000000004" y="-242.09000000000003" width="42.5" height="30" as="geometry"/>
                </mxCell>
                <mxCell id="229" value="Other Internal Impl" style="rounded=0;whiteSpace=wrap;html=1;fillColor=#a0522d;fontColor=#ffffff;strokeColor=#6D1F00;" parent="1" vertex="1">
                    <mxGeometry x="193.46000000000004" y="-172.09000000000003" width="100" height="30" as="geometry"/>
                </mxCell>
                <mxCell id="91" value="Contracts&lt;br&gt;(Services)" style="rounded=0;whiteSpace=wrap;html=1;fillColor=#647687;fontColor=#ffffff;strokeColor=#314354;" parent="1" vertex="1">
                    <mxGeometry x="350" y="-322.6865671641791" width="105" height="46.64179104477612" as="geometry"/>
                </mxCell>
                <mxCell id="92" value="Cart&amp;nbsp; Impl" style="rounded=0;whiteSpace=wrap;html=1;fillColor=#6d8764;strokeColor=#3A5431;fontColor=#ffffff;" parent="1" vertex="1">
                    <mxGeometry x="350" y="-248.05970149253733" width="108.5" height="111.94029850746269" as="geometry"/>
                </mxCell>
                <mxCell id="93" value="" style="edgeStyle=none;html=1;endArrow=none;endFill=0;startArrow=classic;startFill=1;" parent="1" source="91" target="92" edge="1">
                    <mxGeometry relative="1" as="geometry"/>
                </mxCell>
                <mxCell id="138" value="Customer&amp;nbsp; Impl" style="rounded=0;whiteSpace=wrap;html=1;fillColor=#6d8764;strokeColor=#3A5431;fontColor=#ffffff;" parent="1" vertex="1">
                    <mxGeometry x="509" y="-248.05970149253733" width="108.49999999999999" height="111.94029850746269" as="geometry"/>
                </mxCell>
                <mxCell id="137" value="Contracts&lt;br&gt;(Services)" style="rounded=0;whiteSpace=wrap;html=1;fillColor=#647687;fontColor=#ffffff;strokeColor=#314354;" parent="1" vertex="1">
                    <mxGeometry x="509" y="-322.6865671641791" width="104.99999999999999" height="46.64179104477612" as="geometry"/>
                </mxCell>
                <mxCell id="139" value="" style="edgeStyle=none;html=1;endArrow=none;endFill=0;startArrow=classic;startFill=1;" parent="1" source="137" target="138" edge="1">
                    <mxGeometry relative="1" as="geometry"/>
                </mxCell>
                <mxCell id="262" value="Book Product List" style="text;html=1;strokeColor=none;fillColor=none;align=center;verticalAlign=middle;whiteSpace=wrap;rounded=0;" parent="1" vertex="1">
                    <mxGeometry x="192.5" y="-350" width="110" height="20" as="geometry"/>
                </mxCell>
                <mxCell id="197" value="Service Impl 1" style="rounded=0;whiteSpace=wrap;html=1;fillColor=#647687;fontColor=#ffffff;strokeColor=#314354;" parent="1" vertex="1">
                    <mxGeometry x="355" y="-240" width="46" height="30" as="geometry"/>
                </mxCell>
                <mxCell id="211" value="Service Impl N" style="rounded=0;whiteSpace=wrap;html=1;fillColor=#647687;fontColor=#ffffff;strokeColor=#314354;" parent="1" vertex="1">
                    <mxGeometry x="409.5" y="-240" width="42.5" height="30" as="geometry"/>
                </mxCell>
                <mxCell id="184" value="Other Internal Impl" style="rounded=0;whiteSpace=wrap;html=1;fillColor=#a0522d;fontColor=#ffffff;strokeColor=#6D1F00;" parent="1" vertex="1">
                    <mxGeometry x="354.25" y="-170" width="100" height="30" as="geometry"/>
                </mxCell>
                <mxCell id="263" value="Cart" style="text;html=1;strokeColor=none;fillColor=none;align=center;verticalAlign=middle;whiteSpace=wrap;rounded=0;" parent="1" vertex="1">
                    <mxGeometry x="349.25" y="-350" width="110" height="20" as="geometry"/>
                </mxCell>
                <mxCell id="270" value="Customer" style="text;html=1;strokeColor=none;fillColor=none;align=center;verticalAlign=middle;whiteSpace=wrap;rounded=0;" parent="1" vertex="1">
                    <mxGeometry x="504" y="-350" width="110" height="20" as="geometry"/>
                </mxCell>
                <mxCell id="273" value="" style="group;strokeColor=default;container=0;" parent="1" vertex="1" connectable="0">
                    <mxGeometry x="490.75" y="-360" width="145" height="250" as="geometry"/>
                </mxCell>
                <mxCell id="156" value="Book&amp;nbsp; Product Impl" style="rounded=0;whiteSpace=wrap;html=1;fillColor=#6d8764;strokeColor=#3A5431;fontColor=#ffffff;" parent="1" vertex="1">
                    <mxGeometry x="1209.3421052631577" y="-268.05970149253733" width="108.82631578947368" height="111.94029850746269" as="geometry"/>
                </mxCell>
                <mxCell id="155" value="Contracts&lt;br&gt;(Services)" style="rounded=0;whiteSpace=wrap;html=1;fillColor=#647687;fontColor=#ffffff;strokeColor=#314354;" parent="1" vertex="1">
                    <mxGeometry x="1209.3421052631577" y="-342.6865671641791" width="105.31578947368422" height="46.64179104477612" as="geometry"/>
                </mxCell>
                <mxCell id="157" value="" style="edgeStyle=none;html=1;endArrow=none;endFill=0;startArrow=classic;startFill=1;" parent="1" source="155" target="156" edge="1">
                    <mxGeometry relative="1" as="geometry"/>
                </mxCell>
                <mxCell id="226" value="Other Internal Impl" style="rounded=0;whiteSpace=wrap;html=1;fillColor=#a0522d;fontColor=#ffffff;strokeColor=#6D1F00;" parent="1" vertex="1">
                    <mxGeometry x="1215.3" y="-192.09" width="100" height="30" as="geometry"/>
                </mxCell>
                <mxCell id="224" value="Service Impl 1" style="rounded=0;whiteSpace=wrap;html=1;fillColor=#647687;fontColor=#ffffff;strokeColor=#314354;" parent="1" vertex="1">
                    <mxGeometry x="1216.05" y="-262.09000000000003" width="46" height="30" as="geometry"/>
                </mxCell>
                <mxCell id="225" value="Service Impl N" style="rounded=0;whiteSpace=wrap;html=1;fillColor=#647687;fontColor=#ffffff;strokeColor=#314354;" parent="1" vertex="1">
                    <mxGeometry x="1270.55" y="-262.09000000000003" width="42.5" height="30" as="geometry"/>
                </mxCell>
                <mxCell id="271" value="Book Product List" style="text;html=1;strokeColor=none;fillColor=none;align=center;verticalAlign=middle;whiteSpace=wrap;rounded=0;" parent="1" vertex="1">
                    <mxGeometry x="1208.47" y="-374" width="110" height="20" as="geometry"/>
                </mxCell>
            </root>
        </mxGraphModel>
    </diagram>
</mxfile>